<svg width="16" height="16" viewBox="0 0 16 16" fill="none" xmlns="http://www.w3.org/2000/svg">
<path d="M10.7656 9.3125C11.2344 8.575 11.5094 7.7 11.5094 6.75938C11.5094 4.13125 9.38125 2 6.75625 2C4.12812 2 2 4.13125 2 6.75938C2 9.3875 4.12813 11.5188 6.75313 11.5188C7.70625 11.5188 8.59375 11.2375 9.3375 10.7563L9.55313 10.6062L12.9469 14L14 12.9281L10.6094 9.53438L10.7656 9.3125ZM9.41875 4.1C10.1281 4.80937 10.5188 5.75312 10.5188 6.75625C10.5188 7.75937 10.1281 8.70313 9.41875 9.4125C8.70937 10.1219 7.76562 10.5125 6.7625 10.5125C5.75937 10.5125 4.81562 10.1219 4.10625 9.4125C3.39687 8.70313 3.00625 7.75937 3.00625 6.75625C3.00625 5.75312 3.39687 4.80937 4.10625 4.1C4.81562 3.39062 5.75937 3 6.7625 3C7.76562 3 8.70937 3.39062 9.41875 4.1Z" fill="white"/>
</svg>
